<?xml version="1.0" encoding="utf-8"?>
<!-- Generator: Adobe Illustrator 20.1.0, SVG Export Plug-In . SVG Version: 6.00 Build 0)  -->
<svg version="1.1" xmlns="http://www.w3.org/2000/svg" xmlns:xlink="http://www.w3.org/1999/xlink" x="0px" y="0px"
	 viewBox="0 0 2560 1600" style="enable-background:new 0 0 2560 1600;" xml:space="preserve">
<style type="text/css">
	.st0{display:none;}
	.st1{display:inline;fill:#FF0000;}
	.st2{display:inline;fill:#FFFF00;}
	.st3{display:inline;fill:#0000FF;}
	.st4{fill:#CCCCCC;}
	.st5{display:inline;}
	.st6{fill:#999999;}
	.st7{fill:#808080;stroke:#808080;stroke-miterlimit:10;}
	.st8{fill:#808080;stroke:#808080;stroke-width:4.252;stroke-miterlimit:10;}
	.st9{fill:none;stroke:#999999;stroke-miterlimit:10;}
	.st10{fill:#999999;stroke:#999999;stroke-miterlimit:10;}
	.st11{fill:#999999;stroke:#999999;stroke-width:4.252;stroke-miterlimit:10;}
	.st12{fill:#8CC63F;stroke:#8CC63F;stroke-width:2;stroke-miterlimit:10;}
	.st13{fill:#8CC63F;stroke:#8CC63F;stroke-width:8.5039;stroke-miterlimit:10;}
	.st14{fill:#FCEE21;stroke:#FCEE21;stroke-width:2;stroke-miterlimit:10;}
	.st15{fill:#FCEE21;stroke:#FCEE21;stroke-width:8.5039;stroke-miterlimit:10;}
	.st16{fill:#FBB03B;stroke:#FBB03B;stroke-width:2;stroke-miterlimit:10;}
	.st17{fill:#FBB03B;stroke:#FBB03B;stroke-width:8.5039;stroke-miterlimit:10;}
	.st18{fill:#3FA9F5;stroke:#3FA9F5;stroke-width:2;stroke-miterlimit:10;}
	.st19{fill:#3FA9F5;stroke:#3FA9F5;stroke-width:8.5039;stroke-miterlimit:10;}
	.st20{fill:none;}
	.st21{fill:#FFFFFF;}
	.st22{font-family:'MyriadPro-Regular';}
	.st23{font-size:48px;}
	.st24{font-size:24px;}
</style>
<g id="mondriaan" class="st0">
	
		<image style="overflow:visible;" width="1024" height="768" xlink:href="G:\Libre\Dick de Graaf\boom mondriaan.jpg"  transform="matrix(1.25 0 0 1.25 608.911 369.4382)">
	</image>
	
		<image style="overflow:visible;opacity:0.4;" width="1024" height="775" xlink:href="G:\Libre\Dick de Graaf\4685674561_3cd8e1673b_b.jpg"  transform="matrix(1.3008 0 0 1.3008 594.911 280.8855)">
	</image>
	
		<image style="overflow:visible;" width="1280" height="932" xlink:href="G:\Libre\Dick de Graaf\boom.JPG"  transform="matrix(0.9023 0 0 0.9023 624.411 385.1739)">
	</image>
</g>
<g id="Layer_3" class="st0">
	<rect x="648.4" y="667.2" class="st1" width="186.5" height="52"/>
	<rect x="715.4" y="760.7" class="st2" width="102" height="71"/>
	<rect x="963.9" y="759.2" class="st2" width="102" height="37"/>
	<rect x="889.9" y="574.2" class="st3" width="74" height="49"/>
	<rect x="938.9" y="659.2" class="st1" width="90" height="43"/>
	<rect x="883.6" y="449.2" class="st1" width="91.4" height="77"/>
	<rect x="1106.9" y="496.2" class="st2" width="88" height="78"/>
	<rect x="1350.9" y="582.2" class="st1" width="120" height="53"/>
	<rect x="1556.9" y="744.2" class="st1" width="151" height="47"/>
	<rect x="1556.9" y="850.2" class="st2" width="64" height="64"/>
	<rect x="1677.9" y="867.2" class="st3" width="101.8" height="56"/>
	<rect x="1350.9" y="796.2" class="st3" width="154" height="35.9"/>
	<rect x="1224.9" y="871.2" class="st1" width="67" height="103"/>
	<rect x="1599.9" y="461.2" class="st2" width="116" height="91"/>
	<rect x="1525.9" y="623.2" class="st3" width="161" height="36"/>
	<rect x="1037.9" y="981.2" class="st2" width="61" height="185"/>
	<rect x="1037.9" y="871.2" class="st3" width="85" height="67"/>
</g>
<g id="stam">
	<g>
		<path class="st4" d="M556.3,800.6l23.7,15.5l19.7,5.6l19.8,8.7l16.6,18.2l9.5,14.3l4.8,9.5l22.2,15l19.8,6.1l22.2,11.7H737
			l12.5,6.1l21.4,13.8l17.4,14.8l9.5,18.9l4.8,16.6l5.5,11.1l12.7,10.3l10.3,18.2l13.5,46.7l5.8,32.5l2.6,34.1v39.2l4,29v27
			l7.1,26.8l-7.4,23l-5.3,61l-2.2,33.3l-22.1,29.3l-25.3,32.5l-20.6,38l-11.9,26.9l-7.1,15c0,0-7.1,4.8-7.9,7.1
			s-11.1,26.1-11.1,26.1l-34.1,43c0,0-5.3,6.5-4.2,6.5c1.1,0,45.6-1.3,45.6-1.3l26.7-17.1l15.8-10.8l19.8-1.8l13.5,3l14.3-9.6
			l12.7,9.5l16.6-7.1l11.9-3.3l13.5-4.1H913l32.1-5.1l15.8-5.2l17.4,3.7l7.9,3.8l7.9,13.4l11.9-8.7l15.8-10.3l26.1-6.3l21.4-5.5
			c0,0,10.3-7.9,12.7-7.1c2.4,0.8,19.8,6.3,19.8,6.3l15,4l16.1,2.4l5.8,7.1v15.7l11.8-1.5l9.8-12.7h10.5l20.7,0.9l23.2-0.1v-16.6
			L1192,1502l-21.7-17.4l-13.2-11.9l-3-11.1l-15.8-86.3l-5.5-37.2l-21.4-98.2l-4.7-44.4l-10.3-91.9l-1.6-42.8l-1.3-53.2"/>
		<path class="st4" d="M564.8,819.2l-31.2-15l-10.4-22.1l-1.3-16.9l4.6-14.3l5.2-13l-8.5-11.1l-20.2-9.1l-15.6-5.9l-17.6-8.5
			l-16.3-7.8l-17.6-7.8l-15-5.2l-18.2-6.5l-19.5-5.2l-20.2-5.9l-23.4-3.3l-17.6-4h-11.1h-13.7l-28.6-6.5l-32.5-7l-29.9-7.8
			l-31.2,2.6l-24.7-8.5l-22.8,2l-20.2-3.9l-23.4-13.4l-35.1-10.7l-17-7.5l-23-15l3.1-29l30.6,9.9l49,18.2l43.1,13.9l51.1,2.4
			l38.6,9.1l33.8,4.7l44.2,7.9l38.4,5.6l29.9,5.2l18.2,5.9l28,2l18.9,9.6H448l11.9,10.5l20.6,12.2l38,21.9l16.6,9.4L547,703l5.5,6.3
			l6.3,7.9l27.7,16.6l8-23.8L603,691l7.9-19l6.3-6.3l8.7-6.3l7.1-9.5v-14.5l7-13.2l5-15v-21.7l-15.3-19.5L612,543.7l-16.4-25.3
			l-15.7-32.5l-15-28.5l-12.7-28.6l-25.1-35.9L425,346l-49.4-22.1L354,309.6l-19.8-5.5l-15.8-1.6l-14.3-23l-21.4-37.2l-16.6-30.9
			l-19-37.2l-23-51.5l-13.5-26.9l-16.6-43.6l-11.9-30.1L175,6.3l31.7,37.2L217,65.7l24.6,57.8l7.9,6.3l20.6,43.6l15.8,38.8
			l19.8,35.6l15.8,22.2l16.6,14.3l18.2,3.2l14.3,2.4l9.5,4l158.7,71.7l7.9-15.8l8.7-9.5l6.2-13.5l1.4-11.9v-9.5l8-24.6l5.3-49.9
			l3.4-41.2l-3.8-13.5l2.4-17.4l-1.6-22.2l4.8-41.2l-0.8-24.6l0.8-24.6l1.8-35.6l9.7,24.6v22.1l2,31.8v30.2l2.2,28.4
			c0,0,2.9,47.5,2.1,49.9c-0.8,2.4,1,35.6,1,35.6l2.5,30.1l-6.3,39.6c0,0,0,20.6-2.3,22.2c-2.4,1.6-12.7,27.7-12.7,27.7l-9.5,23
			l-0.8,15l17.4,34.1l36.4,67.3l26.9,45.1l18.2,20.6l22.2,12.7l21.8,9.5l6.8,9.5v11.7v8l-15.3,12.8l-4.3,10.3l3.4,12.7l22.3,0.8
			l18.3-5.5l11.6-20l15-15l16-20l12-23.3l13.7-27.7l19.3-45l11-29l6-29.3l11-29l11-38.7l13.6-42l12.4-29l10-24l8-20l9.5-61.1
			l18.5,64.1l-13.3,21.4l-9.8,18.5l-12.4,29.4l-11.1,37.7l-12.4,54l0.5,26L875,475.4l-9,27.7l-16,41.2l-21,38l-15.3,29l-12.7,23
			l-9,22l38.2-5.7l26.1-39.2l29.3-40l36.2-48.4l23.1-35.8l48-60l11.8-46.4l56.7-65.6l35.4-32.9L1162,208l77.1-57.4l51-43.9
			l28.2-12.7l16.8-8.6l17.1-14.9l57.4-32.8l68.4-5.4L1435,61.7l-42.9,30.2l-47.6,26.8l-56.3,38.8l-84.5,70.5
			c0,0-55.1,56.7-55.7,57.5c-0.6,0.8-43.6,43.1-43.6,43.1l-55.2,68.6c0,0-9.8,32.1-48,86.4c-10.4,14.7-57,83-58.5,85.3
			c-1.6,2.4-23.5,46.4-23.5,46.4l-20,36l-42.7,33.9l-43.5,22.3l-49.1,6.3l-49.1,1.6l-23,2.4l-1.6,15.8l9.5,13.5l22.2,1.8l14.3-3.7h9
			l14.7,2.1l13.5,7.4l26.1,2.9l38,7l14.3,9.4l5.5,15.7l9.5,1.4H881l7.2,10.8l4.6,22.7l5.5,8.5H909l6.8-12.2l0.8-10l5.5-9.8l12.7-5.9
			l10.3,7.3l8.7,14.2l8.7,6.3l15,1.6l3.2,15l4,13.5l104.3-234l193-174l405-236.6l113.8-25.9l52-26.1l66.8-38.5l45.3-23.2l60.3-32.5
			l32.8-14.9l50.2-17.7l45.8-18.4c0,0,8.1,30,2.1,30c-4,0-62.4,18.9-62.4,18.9l-43.4,13.1c0,0-54,27.3-57.1,30.2
			c-3.7,3.4-29.3,21.9-48.5,32.9l-21,25.6l4.1,19.7l38.9-13.7l40.7-10.5l52.6-16l46.6-14.6l35.2-8.8l23.8-4l-2,22.4
			c0,0-63.8,16-66.1,16c-2.4,0-45.3,13.3-45.3,13.3l-69,21.5l-69,17.8l-81.8,21.9l-69,11.9l-68.6,18.3l-45.3,21.5l-50.4,23.8
			l-38,19.3l-28.1,33.4l-20,16l-16,6c0,0-12.7,14-12.8,14c0,0-28.7,48.4-59.2,50c-38,2-152,80-152,80l-130,112.7l-83.5,153.8
			l-18.5,45.6l-21.5,69.2l-1.6,26.5l1.6,38.4h25.5l19.7-6.1l27.7-23.3l30.7-49.3l92-136l173.2-79.2c1.2-0.7,2.5-1,3.8-1h35.6
			c0.4,0,0.8,0,1.1-0.1l38.9-5.8c0.4-0.1,0.8-0.1,1.1-0.1h14.6c0.5,0,1.1,0.1,1.6,0.2l21.8,4.6c0.8,0.2,1.6,0.2,2.4,0.1l40.7-4.6
			l35.6-3.7l29.5-4.4c0.4-0.1,0.8-0.1,1.1-0.1h37.9l30.5,1.6c0.5,0,1,0.1,1.4,0.2l43.1,10.6c0.4,0.1,0.7,0.2,1.1,0.2l33.4,3.2
			c1.1,0.1,2.2,0,3.2-0.4l32.3-11.1c0.7-0.2,1.3-0.6,1.9-1l30.8-21.6l20.5-15.4c1.1-0.8,2.3-1.3,3.7-1.5l15.8-1.9
			c1.3-0.2,2.5-0.6,3.6-1.4l10.8-7.8c1.2-0.9,2.7-1.4,4.2-1.4l22.3-0.7c0.4,0,0.9-0.1,1.3-0.2l33.4-7l38.1-7.6c1-0.2,1.9-0.2,2.9,0
			l21.6,4.1c1.5,0.3,3,0.1,4.4-0.5l40.8-17.1c0.4-0.2,0.8-0.3,1.3-0.4l39.7,0.9c0.2,0,0.4-0.1,0.6-0.1l88.4-13.4l39.2-7.1
			c0.3-0.1,0.6-0.1,0.8-0.2l44.4-13.2c0.2-0.1,0.5-0.1,0.7-0.2l52.7-21.3l40.7-18.8c1.4-0.6,2.9-0.9,4.4-0.6l13.5,2.1
			c5.7,0.9,8.4,7.6,4.9,12.2l0,0c-0.6,0.7-1.2,1.3-2,1.8l-40.5,25.2c-0.2,0.1-0.4,0.2-0.6,0.3l-37.7,18.8l-34.3,16.4
			c-0.4,0.2-0.7,0.3-1.1,0.4l-36,10.7c-0.4,0.1-0.7,0.2-1.1,0.2l-43.1,6.3l-50.3,6.3c-0.3,0-0.5,0.1-0.8,0.1l-54.3,12.6l-63.9,7.9
			c-0.3,0.1-0.6,0.2-0.9,0.3l-52.7,21.7c-0.5,0.2-0.9,0.3-1.4,0.4c-7.5,1.5-71.5,14.2-73.7,14.9c-2,0.7-28.1,5.9-35.9,7.5
			c-1.4,0.3-2.7,1-3.7,1.9l-25.6,24.1c-0.4,0.3-0.7,0.6-1.1,0.9l-31.9,20.3c-1.5,1-3.3,1.4-5.1,1.1l-73.8-9.9
			c-0.2,0-0.4-0.1-0.6-0.1l-44.9-9.4l-28.1-4.6c-0.8-0.1-1.6-0.1-2.4,0l-51.1,7.7l-45.3,7c-0.4,0.1-0.9,0.1-1.3,0.1l-79.3-1.6
			l-42.5,0.8c-0.1,0-0.3,0-0.4,0l-38.8,15.7c-2-0.1-7.3-0.7-25,15l-123.9,76.6l-66.7,108l-74.1,80.7"/>
	</g>
	<path class="st4" d="M795.2,594l-7.9-15.8l-8.7-9.5l-6.2-13.5l-1.4-11.9v-9.5l-8-24.6l-5.3-49.9l-3.4-41.2l3.8-13.5l-2.4-17.4
		l1.6-22.2l-4.8-41.2l0.8-24.6L746,195.9L717.5,36L700.2,60l29.7,187.6l9.1,70.1v30.2l-2.2,28.4c0,0-2.9,47.5-2.1,49.9
		s-1,35.6-1,35.6l-2.5,30.1l6.3,39.6c0,0,0,20.6,2.3,22.2c2.4,1.6,12.7,27.7,12.7,27.7l9.5,23l0.8,15"/>
</g>
<g id="Noten_sub" class="st0">
	<g id="Group_H1" class="st5">
		<g>
			
				<ellipse transform="matrix(0.9397 -0.342 0.342 0.9397 -207.6285 263.4547)" class="st6" cx="643.2" cy="720.5" rx="15.7" ry="10.7"/>
			<line class="st6" x1="629.9" y1="722.5" x2="629.9" y2="786.5"/>
			<path class="st6" d="M631.6,769.6c2.2-1.2,4.6-2.2,6.7-3.5c1.2-0.8,3.4-2.6,4.5-3.5c1-0.8,2.8-2.5,3.6-3.5
				c0.7-0.9,1.8-2.8,2.3-3.9c0.4-0.9,0.8-2.7,1-3.7c0.4-2.2,0.8-6.9,0.6-9c-0.2-2.3-1-9.3-1-9.3s1.9,2.4,2.4,3.3
				c0.5,0.8,1.1,4.2,1.1,4.2s1.4,5,1.5,6.8c0.2,1.7,0.2,5.3,0,7c-0.2,1.6-1.1,4.6-1.6,6.1c-0.5,1.6-1.4,2.8-2.4,4.1
				c-1.7,2.4-3.4,4.9-5.1,7.3c-1.2,1.7-2.5,3-3.6,4.5c-1.2,1.7-2.3,2.4-3.6,4.4c-0.1,0.2-0.5,0.7-0.8,1.1c-1.5,2-3.5,4-5.3,4
				C632,780.6,631.6,775,631.6,769.6z"/>
		</g>
		<g>
			
				<ellipse transform="matrix(0.9397 -0.342 0.342 0.9397 -207.6285 263.4547)" class="st7" cx="643.2" cy="720.5" rx="15.7" ry="10.7"/>
			<line class="st8" x1="629.9" y1="722.5" x2="629.9" y2="786.5"/>
			<path class="st7" d="M631.6,769.6c2.2-1.2,4.6-2.2,6.7-3.5c1.2-0.8,3.4-2.6,4.5-3.5c1-0.8,2.8-2.5,3.6-3.5
				c0.7-0.9,1.8-2.8,2.3-3.9c0.4-0.9,0.8-2.7,1-3.7c0.4-2.2,0.8-6.9,0.6-9c-0.2-2.3-1-9.3-1-9.3s1.9,2.4,2.4,3.3
				c0.5,0.8,1.1,4.2,1.1,4.2s1.4,5,1.5,6.8c0.2,1.7,0.2,5.3,0,7c-0.2,1.6-1.1,4.6-1.6,6.1c-0.5,1.6-1.4,2.8-2.4,4.1
				c-1.7,2.4-3.4,4.9-5.1,7.3c-1.2,1.7-2.5,3-3.6,4.5c-1.2,1.7-2.3,2.4-3.6,4.4c-0.1,0.2-0.5,0.7-0.8,1.1c-1.5,2-3.5,4-5.3,4
				C632,780.6,631.6,775,631.6,769.6z"/>
		</g>
		<g>
			
				<ellipse transform="matrix(0.9397 -0.342 0.342 0.9397 -207.6285 263.4547)" class="st9" cx="643.2" cy="720.5" rx="15.7" ry="10.7"/>
			<line class="st9" x1="629.9" y1="722.5" x2="629.9" y2="786.5"/>
			<path class="st9" d="M631.6,769.6c2.2-1.2,4.6-2.2,6.7-3.5c1.2-0.8,3.4-2.6,4.5-3.5c1-0.8,2.8-2.5,3.6-3.5
				c0.7-0.9,1.8-2.8,2.3-3.9c0.4-0.9,0.8-2.7,1-3.7c0.4-2.2,0.8-6.9,0.6-9c-0.2-2.3-1-9.3-1-9.3s1.9,2.4,2.4,3.3
				c0.5,0.8,1.1,4.2,1.1,4.2s1.4,5,1.5,6.8c0.2,1.7,0.2,5.3,0,7c-0.2,1.6-1.1,4.6-1.6,6.1c-0.5,1.6-1.4,2.8-2.4,4.1
				c-1.7,2.4-3.4,4.9-5.1,7.3c-1.2,1.7-2.5,3-3.6,4.5c-1.2,1.7-2.3,2.4-3.6,4.4c-0.1,0.2-0.5,0.7-0.8,1.1c-1.5,2-3.5,4-5.3,4
				C632,780.6,631.6,775,631.6,769.6z"/>
		</g>
	</g>
	<g id="Group_H2" class="st5">
		
			<ellipse transform="matrix(0.9397 -0.342 0.342 0.9397 -111.3028 269.7451)" class="st10" cx="709.2" cy="450.5" rx="15.7" ry="10.7"/>
		<line class="st11" x1="695.9" y1="452.5" x2="695.9" y2="516.5"/>
		<path class="st10" d="M697.6,499.6c2.2-1.2,4.6-2.2,6.7-3.5c1.2-0.8,3.4-2.6,4.5-3.5c1-0.8,2.8-2.5,3.6-3.5
			c0.7-0.9,1.8-2.8,2.3-3.9c0.4-0.9,0.8-2.7,1-3.7c0.4-2.2,0.8-6.9,0.6-9c-0.2-2.3-1-9.3-1-9.3s1.9,2.4,2.4,3.3
			c0.5,0.8,1.1,4.2,1.1,4.2s1.4,5,1.5,6.8c0.2,1.7,0.2,5.3,0,7c-0.2,1.6-1.1,4.6-1.6,6.1c-0.5,1.6-1.4,2.8-2.4,4.1
			c-1.7,2.4-3.4,4.9-5.1,7.3c-1.2,1.7-2.5,3-3.6,4.5c-1.2,1.7-2.3,2.4-3.6,4.4c-0.1,0.2-0.5,0.7-0.8,1.1c-1.5,2-3.5,4-5.3,4
			C698,510.6,697.6,505,697.6,499.6z"/>
	</g>
	<g id="Group_H3" class="st5">
		
			<ellipse transform="matrix(0.9397 -0.342 0.342 0.9397 -103.161 360.7911)" class="st10" cx="971.5" cy="472.9" rx="15.7" ry="10.7"/>
		<line class="st11" x1="958.5" y1="476.4" x2="958.5" y2="540.4"/>
	</g>
	<g id="Group_H4" class="st5">
		
			<ellipse transform="matrix(0.9397 -0.342 0.342 0.9397 -107.8161 443.6334)" class="st10" cx="1204.1" cy="527.5" rx="15.7" ry="10.7"/>
		<line class="st11" x1="1190.7" y1="529.5" x2="1190.7" y2="593.5"/>
	</g>
	<g id="Group_H5" class="st5">
		
			<ellipse transform="matrix(0.9397 -0.342 0.342 0.9397 -95.4682 533.0304)" class="st10" cx="1463.7" cy="537.2" rx="15.7" ry="10.7"/>
		<line class="st11" x1="1450.4" y1="539.2" x2="1450.4" y2="603.2"/>
	</g>
	<g id="Group_H6" class="st5">
		
			<ellipse transform="matrix(0.9397 -0.342 0.342 0.9397 -140.2834 631.3883)" class="st10" cx="1720.2" cy="713.5" rx="15.7" ry="10.7"/>
		<line class="st11" x1="1706.9" y1="715.5" x2="1706.9" y2="779.5"/>
		<path class="st10" d="M1708.6,762.6c2.2-1.2,4.6-2.2,6.7-3.5c1.2-0.8,3.4-2.6,4.5-3.5c1-0.8,2.8-2.5,3.6-3.5
			c0.7-0.9,1.8-2.8,2.3-3.9c0.4-0.9,0.8-2.7,1-3.7c0.4-2.2,0.8-6.9,0.6-9c-0.2-2.3-1-9.3-1-9.3s1.8,2.4,2.1,3.3
			c0.3,0.9,1.4,4.1,1.4,4.1s1.4,5,1.5,6.8c0.2,1.7,0.2,5.3,0,7c-0.2,1.6-1.1,4.6-1.6,6.1c-0.5,1.6-1.4,2.8-2.4,4.1
			c-1.7,2.4-3.4,4.9-5.1,7.3c-1.2,1.7-2.5,3-3.6,4.5c-1.2,1.6-2.2,2.3-3.6,4.4c-0.1,0.1-0.5,0.7-0.8,1.1c-1.5,2-3.5,4-5.3,4
			C1709,773.6,1708.6,768,1708.6,762.6z"/>
	</g>
	<g id="Group_H7" class="st5">
		
			<ellipse transform="matrix(0.9397 -0.342 0.342 0.9397 -326.7914 421.6488)" class="st7" cx="1032.2" cy="1137.5" rx="15.7" ry="10.7"/>
		<line class="st8" x1="1018.9" y1="1139.5" x2="1018.9" y2="1203.5"/>
		<path class="st7" d="M1020.6,1186.6c2.2-1.2,4.6-2.2,6.7-3.5c1.2-0.8,3.4-2.6,4.5-3.5c1-0.8,2.8-2.5,3.6-3.5
			c0.7-0.9,1.8-2.8,2.3-3.9c0.4-0.9,0.8-2.7,1-3.7c0.4-2.2,0.8-6.9,0.6-9c-0.2-2.3-1-9.3-1-9.3s1.9,2.4,2.4,3.3
			c0.5,0.8,1.1,4.2,1.1,4.2s1.4,5,1.5,6.8c0.2,1.7,0.2,5.3,0,7c-0.2,1.6-1.1,4.6-1.6,6.1c-0.5,1.6-1.4,2.8-2.4,4.1
			c-1.7,2.4-3.4,4.9-5.1,7.3c-1.2,1.7-2.5,3-3.6,4.5c-1.2,1.7-2.3,2.4-3.6,4.4c-0.1,0.2-0.5,0.7-0.8,1.1c-1.5,2-3.5,4-5.3,4
			C1021,1197.6,1020.6,1192,1020.6,1186.6z"/>
	</g>
</g>
<g id="Noten">
	<g id="group_1_kleur_2_">
		
			<ellipse transform="matrix(0.9397 -0.342 0.342 0.9397 -197.7134 65.7205)" class="st12" cx="87.5" cy="593.5" rx="31.3" ry="21.3"/>
		<line class="st13" x1="60.8" y1="597.5" x2="60.8" y2="725.5"/>
		<path class="st12" d="M64.3,691.8c4.5-2.4,9.1-4.3,13.4-7.1c2.4-1.5,6.8-5.2,8.9-7.1c1.9-1.6,5.6-5.1,7.2-7
			c1.4-1.7,3.7-5.7,4.6-7.8c0.7-1.7,1.6-5.5,1.9-7.3c0.8-4.5,1.5-13.7,1.1-18.1c-0.4-4.6-2.1-18.5-2.1-18.5s3.9,4.8,4.9,6.6
			c0.9,1.6,2.1,8.3,2.1,8.3s2.7,10.1,3.1,13.5c0.4,3.5,0.5,10.6-0.1,14.1c-0.5,3.1-2.2,9.2-3.2,12.2c-1,3.1-2.9,5.6-4.8,8.2
			c-3.4,4.8-6.7,9.8-10.1,14.6c-2.5,3.5-5,6-7.3,9c-2.5,3.3-4.6,4.9-7.1,8.9c-0.2,0.3-1.1,1.5-1.5,2.1c-2.9,4-7,8-10.6,8
			C64.9,713.8,64.2,702.6,64.3,691.8z"/>
	</g>
	<g id="group_2_kleur_2_">
		
			<ellipse transform="matrix(0.9397 -0.342 0.342 0.9397 -8.4822 78.9043)" class="st14" cx="219.5" cy="63.5" rx="31.3" ry="21.3"/>
		<line class="st15" x1="192.8" y1="67.5" x2="192.8" y2="195.5"/>
		<path class="st14" d="M196.3,161.8c4.5-2.4,9.1-4.3,13.4-7.1c2.4-1.5,6.8-5.2,8.9-7.1c1.9-1.6,5.6-5.1,7.2-7
			c1.4-1.7,3.7-5.7,4.6-7.8c0.7-1.7,1.6-5.5,1.9-7.3c0.8-4.5,1.5-13.7,1.1-18.1c-0.4-4.6-2.1-18.5-2.1-18.5s3.9,4.8,4.9,6.6
			c0.9,1.6,2.1,8.3,2.1,8.3s2.7,10.1,3.1,13.5c0.4,3.5,0.5,10.6-0.1,14.1c-0.5,3.1-2.2,9.2-3.2,12.2c-1,3.1-2.9,5.6-4.8,8.2
			c-3.4,4.8-6.7,9.8-10.1,14.6c-2.5,3.5-5,6-7.3,9c-2.5,3.3-4.6,4.9-7.1,8.9c-0.2,0.3-1.1,1.5-1.5,2.1c-2.9,4-7,8-10.6,8
			C196.9,183.8,196.2,172.6,196.3,161.8z"/>
	</g>
	<g id="group_3_kleur_1_">
		<ellipse transform="matrix(0.9397 -0.342 0.342 0.9397 14.4082 258.7734)" class="st16" cx="741" cy="88.5" rx="31.3" ry="21.3"/>
		<line class="st17" x1="715" y1="95.5" x2="715" y2="223.5"/>
	</g>
	<g id="group_4_kleur_1_">
		
			<ellipse transform="matrix(0.9397 -0.342 0.342 0.9397 5.1189 425.5123)" class="st18" cx="1209.2" cy="198.2" rx="31.3" ry="21.3"/>
		<line class="st19" x1="1182.5" y1="202.2" x2="1182.5" y2="330.2"/>
	</g>
	<g id="group_5_kleur_1_">
		
			<ellipse transform="matrix(0.9397 -0.342 0.342 0.9397 27.7515 604.67)" class="st12" cx="1728.5" cy="223.6" rx="31.3" ry="21.3"/>
		<line class="st13" x1="1701.8" y1="227.6" x2="1701.8" y2="355.6"/>
	</g>
	<g id="group_6_kleur_2_">
		
			<ellipse transform="matrix(0.9397 -0.342 0.342 0.9397 -62.6199 795.8741)" class="st14" cx="2225.5" cy="575.5" rx="31.3" ry="21.3"/>
		<line class="st15" x1="2198.8" y1="579.5" x2="2198.8" y2="707.5"/>
		<path class="st14" d="M2202.3,673.8c4.5-2.4,9.1-4.3,13.4-7.1c2.4-1.5,6.8-5.2,8.9-7.1c1.9-1.6,5.6-5.1,7.2-7
			c1.4-1.7,3.7-5.7,4.6-7.8c0.7-1.7,1.6-5.5,1.9-7.3c0.8-4.5,1.5-13.7,1.1-18.1c-0.4-4.6-2.1-18.5-2.1-18.5s3.5,4.7,4.2,6.6
			c0.6,1.7,2.8,8.3,2.8,8.3s2.7,10.1,3.1,13.5c0.4,3.5,0.5,10.6-0.1,14.1c-0.5,3.1-2.2,9.2-3.2,12.2c-1,3.1-2.9,5.6-4.8,8.2
			c-3.4,4.8-6.7,9.8-10.1,14.6c-2.5,3.5-5,6-7.3,9c-2.3,3.2-4.4,4.6-7.1,8.9c-0.2,0.3-1.1,1.5-1.5,2.1c-2.9,4-7,8-10.6,8
			C2202.9,695.8,2202.2,684.6,2202.3,673.8z"/>
	</g>
	<g id="group_7_kleur_2_">
		
			<ellipse transform="matrix(0.9397 -0.342 0.342 0.9397 -432.6189 381.5055)" class="st16" cx="865.5" cy="1417.5" rx="31.3" ry="21.3"/>
		<line class="st17" x1="838.8" y1="1421.5" x2="838.8" y2="1549.5"/>
		<path class="st16" d="M842.3,1515.8c4.5-2.4,9.1-4.3,13.4-7.1c2.4-1.5,6.8-5.2,8.9-7.1c1.9-1.6,5.6-5.1,7.2-7
			c1.4-1.7,3.7-5.7,4.6-7.8c0.7-1.7,1.6-5.5,1.9-7.3c0.8-4.5,1.5-13.7,1.1-18.1c-0.4-4.6-2.1-18.5-2.1-18.5s3.9,4.8,4.9,6.6
			c0.9,1.6,2.1,8.3,2.1,8.3s2.7,10.1,3.1,13.5c0.4,3.5,0.5,10.6-0.1,14.1c-0.5,3.1-2.2,9.2-3.2,12.2c-1,3.1-2.9,5.6-4.8,8.2
			c-3.4,4.8-6.7,9.8-10.1,14.6c-2.5,3.5-5,6-7.3,9c-2.5,3.3-4.6,4.9-7.1,8.9c-0.2,0.3-1.1,1.5-1.5,2.1c-2.9,4-7,8-10.6,8
			C842.9,1537.8,842.2,1526.6,842.3,1515.8z"/>
	</g>
</g>
<g id="Hoofdstuknummering">
	<rect x="855" y="1398.7" class="st20" width="38.2" height="48.2"/>
	<text transform="matrix(1 0 0 1 855.02 1432.7383)" class="st21 st22 st23">7</text>
	<rect x="2214.2" y="556.9" class="st20" width="96" height="106.7"/>
	<text transform="matrix(1 0 0 1 2214.1611 590.9732)" class="st21 st22 st23">6</text>
	<rect x="1716.2" y="204.3" class="st20" width="86.7" height="96"/>
	<text transform="matrix(1 0 0 1 1716.162 238.3456)" class="st21 st22 st23">5</text>
	<rect x="1198.5" y="180.8" class="st20" width="101.3" height="104"/>
	<text transform="matrix(1 0 0 1 1198.4833 214.8677)" class="st21 st22 st23">4</text>
	<rect x="729" y="70.2" class="st20" width="63.6" height="50.7"/>
	<text transform="matrix(1 0 0 1 728.9744 104.2837)" class="st21 st22 st23">3</text>
	<rect x="208.9" y="41.1" class="st20" width="65.2" height="49.1"/>
	<text transform="matrix(1 0 0 1 208.8945 75.2134)" class="st21 st22 st23">2</text>
	<rect x="75" y="574.7" class="st20" width="38.2" height="48.2"/>
	<text transform="matrix(1 0 0 1 75.0194 608.7388)" class="st21 st22 st23">1</text>
</g>
<g id="Hoofdstuktitels">
	<rect x="130.8" y="575" class="st20" width="434" height="80"/>
	<text transform="matrix(1 0 0 1 130.8359 609.0523)" class="st22 st23">Introduction</text>
	<rect x="260.8" y="41.7" class="st20" width="777.3" height="102.7"/>
	<text transform="matrix(1 0 0 1 260.8319 75.771)"><tspan x="0" y="0" class="st22 st23">Fascinating musical </tspan><tspan x="0" y="57.6" class="st22 st23">examples</tspan></text>
	<rect x="789" y="69.9" class="st20" width="710" height="112"/>
	<text transform="matrix(1 0 0 1 788.991 103.9439)"><tspan x="0" y="0" class="st22 st23">Context in </tspan><tspan x="0" y="57.6" class="st22 st23">Jazz Education</tspan></text>
	<rect x="1257.2" y="181" class="st20" width="693.3" height="124.3"/>
	<text transform="matrix(1 0 0 1 1257.1512 215.0552)"><tspan x="0" y="0" class="st22 st23">Improvising with </tspan><tspan x="0" y="57.6" class="st22 st23">the Tone Clock</tspan></text>
	<polygon class="st20" points="2146.2,336.2 1774.8,336.2 1774.8,206.3 2146.2,208.3 	"/>
	<text transform="matrix(1 0 0 1 1774.828 240.3465)"><tspan x="0" y="0" class="st22 st23">Improvising with </tspan><tspan x="0" y="57.6" class="st22 st23">Messiaen’s modes</tspan></text>
	<polygon class="st20" points="2504.8,696.8 2276.5,696.8 2276.5,556.2 2502.2,556.2 	"/>
	<text transform="matrix(1 0 0 1 2276.501 590.2496)" class="st22 st23">Coda        </text>
	<rect x="908.8" y="1399" class="st20" width="434" height="80"/>
	<text transform="matrix(1 0 0 1 908.8359 1433.0527)" class="st22 st23">References</text>
</g>
<g id="Text_H1__x2B__P">
	<rect x="130.8" y="642.3" class="st20" width="494.7" height="845.3"/>
	<text transform="matrix(1 0 0 1 130.8359 659.3087)"><tspan x="0" y="0" class="st22 st24">1.1	The subject of this study </tspan><tspan x="0" y="57.6" class="st22 st24">1.2	My motivation to undertake this study </tspan><tspan x="0" y="115.2" class="st22 st24">1.3	The utility of this study</tspan><tspan x="0" y="172.8" class="st22 st24">1.4	Developing my personal sound </tspan><tspan x="0" y="201.6" class="st22 st24">1.4.1	Improvising outside the chords</tspan><tspan x="0" y="230.4" class="st22 st24">1.4.2	Constructing contrafacts</tspan><tspan x="0" y="259.2" class="st22 st24">1.4.3	Pushing the boundaries of style</tspan><tspan x="0" y="288" class="st22 st24">1.4.4	The need for innovative harmonic issues</tspan><tspan x="0" y="345.6" class="st22 st24">1.5	Design of this study</tspan><tspan x="0" y="374.4" class="st22 st24">1.5.1	Context in jazz education</tspan><tspan x="0" y="403.2" class="st22 st24">1.5.2	Improvising with the Tone Clock</tspan><tspan x="0" y="432" class="st22 st24">1.5.3	Olivier Messiaen’s modes of </tspan><tspan x="0" y="460.8" class="st22 st24">	limited transposition</tspan><tspan x="0" y="489.6" class="st22 st24">1.5.4	CODA</tspan></text>
</g>
<g id="Text_H2__x2B__P">
	<polygon class="st20" points="713.5,992.5 263.5,992.5 263.5,164.5 714.8,164.5 	"/>
	<text transform="matrix(1 0 0 1 263.4608 181.5489)"><tspan x="0" y="0" class="st22 st24">2.1	Michael Brecker: </tspan><tspan x="-0.2" y="28.8" class="st22 st24">	tonal superimpositions and harmonic 	</tspan><tspan x="0" y="57.6" class="st22 st24">	displacements </tspan><tspan x="0" y="86.4" class="st22 st24">2.2	Mike Sim: </tspan><tspan x="0" y="115.2" class="st22 st24">	“incorrect” parallel ii-V chords</tspan><tspan x="0" y="144" class="st22 st24">2.3	Paul Bley: </tspan><tspan x="0" y="172.8" class="st22 st24">	non-tonal superimpositions and 		</tspan><tspan x="0" y="201.6" class="st22 st24">	melodic and rhythmic sequences</tspan><tspan x="0" y="230.4" class="st22 st24">2.4	Bunky Green: </tspan><tspan x="0" y="259.2" class="st22 st24">	stacked perfect fourth intervals and 		</tspan><tspan x="0" y="288" class="st22 st24">superimposed triads</tspan><tspan x="0" y="316.8" class="st22 st24">2.5	Gary Thomas: </tspan><tspan x="0" y="345.6" class="st22 st24">	changing expected scale qualities</tspan></text>
</g>
<g id="Text_H3__x2B__P">
	<rect x="789" y="194.8" class="st20" width="449.2" height="1184.5"/>
	<text transform="matrix(1 0 0 1 788.9905 211.876)"><tspan x="0" y="0" class="st22 st24">3.1	Introduction </tspan><tspan x="0" y="28.8" class="st22 st24">3.1.1	the chord-scale technique</tspan><tspan x="0" y="57.6" class="st22 st24">3.1.2	Playing outside the changes </tspan><tspan x="0" y="115.2" class="st22 st24">3.2	David Liebman (2013) </tspan><tspan x="0" y="144" class="st22 st24">3.2.1	Theory</tspan><tspan x="0" y="172.8" class="st22 st24">3.2.2 	Practical applications</tspan><tspan x="0" y="201.6" class="st22 st24">3.2.3	Twelve-tone techniques</tspan><tspan x="0" y="230.4" class="st22 st24">3.2.4	Evaluation </tspan><tspan x="0" y="288" class="st22 st24">3.3	Jerry Bergonzi (2000)</tspan><tspan x="0" y="316.8" class="st22 st24">3.3.1	Theory</tspan><tspan x="0" y="345.6" class="st22 st24">3.3.2	Practical applications</tspan><tspan x="0" y="374.4" class="st22 st24">3.3.3	Twelve-tone techniques</tspan><tspan x="0" y="403.2" class="st22 st24">3.3.4	Evaluation </tspan><tspan x="0" y="460.8" class="st22 st24">3.4	George Garzone (2009)</tspan><tspan x="0" y="489.6" class="st22 st24">3.4.1	Theory</tspan><tspan x="0" y="518.4" class="st22 st24">3.4.2	Practical applications</tspan><tspan x="0" y="547.2" class="st22 st24">3.4.3	Twelve-tone techniques</tspan><tspan x="0" y="576" class="st22 st24">3.4.4	Evaluation </tspan><tspan x="0" y="633.6" class="st22 st24">3.5	Walt Weiskopf (2009)</tspan><tspan x="0" y="662.4" class="st22 st24">3.5.1	Theory</tspan><tspan x="0" y="691.2" class="st22 st24">3.5.2	Practical applications</tspan><tspan x="0" y="720" class="st22 st24">3.5.3	Twelve-tone techniques</tspan><tspan x="0" y="748.8" class="st22 st24">3.5.4	Evaluation </tspan><tspan x="0" y="806.4" class="st22 st24">3.6	Jerry Bergonzi (2006)</tspan><tspan x="0" y="835.2" class="st22 st24">3.6.1	Theory</tspan><tspan x="0" y="864" class="st22 st24">3.6.2	Practical applications</tspan><tspan x="0" y="892.8" class="st22 st24">3.6.3	Twelve-tone techniques</tspan><tspan x="0" y="921.6" class="st22 st24">3.6.4	Evaluation </tspan><tspan x="0" y="979.2" class="st22 st24">3.7	John O’Gallagher (2013)</tspan><tspan x="0" y="1008" class="st22 st24">3.7.1	Theory</tspan><tspan x="0" y="1036.8" class="st22 st24">3.7.2	Practical applications</tspan><tspan x="0" y="1065.6" class="st22 st24">3.7.3	Twelve-tone techniques</tspan><tspan x="0" y="1094.4" class="st22 st24">3.7.4	Evaluation </tspan><tspan x="0" y="1152" class="st22 st24">3.8	Comparing these publications</tspan></text>
</g>
<g id="Text_H4__x2B__P">
	<rect x="1257.2" y="302.2" class="st20" width="466.7" height="1241.3"/>
	<text transform="matrix(1 0 0 1 1257.1512 319.2715)"><tspan x="0" y="0" class="st22 st24">4.1	Introduction: tonal and </tspan><tspan x="0" y="28.8" class="st22 st24">	twelve-tone music</tspan><tspan x="0" y="86.4" class="st22 st24">4.2	Peter Schat’s Tone Clock</tspan><tspan x="0" y="144" class="st22 st24">4.3	Theoretical context of the Tone Clock </tspan><tspan x="0" y="172.8" class="st22 st24">4.3.1	Allan Forte’s pitch set class theory</tspan><tspan x="0" y="201.6" class="st22 st24">4.3.2	The problem of the three-ness</tspan><tspan x="0" y="230.4" class="st22 st24">4.3.3	Controlled revolution and natural 		</tspan><tspan x="0" y="259.2" class="st22 st24">	evolution</tspan><tspan x="0" y="316.8" class="st22 st24">4.4	Applications of the Tone Clock in jazz</tspan><tspan x="0" y="345.6" class="st22 st24">4.4.1	“7th Hour Blues” (Theo Hoogstins)</tspan><tspan x="0" y="374.4" class="st22 st24">4.4.2	“Green Room” (Frank Carlberg)</tspan><tspan x="0" y="403.2" class="st22 st24">4.4.3	“Petulant Snoot” (John O’Gallagher)</tspan><tspan x="0" y="460.8" class="st22 st24">4.5	My applications of the Tone Clock</tspan><tspan x="0" y="489.6" class="st22 st24">4.5.1	“Onsa”</tspan><tspan x="0" y="518.4" class="st22 st24">4.5.2	“Pontiac”</tspan><tspan x="0" y="547.2" class="st22 st24">4.5.3	“Dicke Pitter”</tspan><tspan x="0" y="604.8" class="st22 st24">4.6	Trichord operations instead of  </tspan><tspan x="0" y="633.6" class="st22 st24">	“composite scales”</tspan><tspan x="0" y="691.2" class="st22 st24">4.7	Compendium of melodic patterns</tspan><tspan x="0" y="720" class="st22 st24">4.7.1	trichord 1+2</tspan><tspan x="0" y="748.8" class="st22 st24">4.7.2	trichord 1+3</tspan><tspan x="0" y="777.6" class="st22 st24">4.7.3	trichord 1+4</tspan><tspan x="0" y="806.4" class="st22 st24">4.7.4	trichord 1+5</tspan><tspan x="0" y="835.2" class="st22 st24">4.7.5	trichord 2+3</tspan><tspan x="0" y="864" class="st22 st24">4.7.6	trichord 2+4</tspan><tspan x="0" y="892.8" class="st22 st24">4.7.7	trichord 2+5</tspan><tspan x="0" y="921.6" class="st22 st24">4.7.8	tetrachord 1+5+1</tspan><tspan x="0" y="950.4" class="st22 st24">4.7.9	tetrachord 2+1+2</tspan><tspan x="0" y="979.2" class="st22 st24">4.7.10	tetrachord 2+3+2</tspan><tspan x="0" y="1008" class="st22 st24">4.7.11	tetrachord 5+1+1</tspan><tspan x="0" y="1036.8" class="st22 st24">4.7.12	tetrachord 1+2+3</tspan><tspan x="0" y="1065.6" class="st22 st24">              </tspan><tspan x="0" y="1094.4" class="st22 st24">4.8.	Conclusion</tspan></text>
</g>
<g id="Text_H5__x2B__P">
	<polygon class="st20" points="2233,1581.2 1759,1581.2 1774.3,330.2 2233,330.2 	"/>
	<text transform="matrix(1 0 0 1 1774.3241 347.2787)"><tspan x="0" y="0" class="st22 st24">5.1	Introduction</tspan><tspan x="-0.7" y="57.6" class="st22 st24">5.2	Messiaen’s seven modes of </tspan><tspan x="-1.1" y="86.4" class="st22 st24">	limited transposition </tspan><tspan x="-1.4" y="115.2" class="st22 st24">5.2.1	First mode (M1)</tspan><tspan x="-1.8" y="144" class="st22 st24">5.2.2	Second mode (M2)</tspan><tspan x="-2.1" y="172.8" class="st22 st24">5.2.3	Third mode (M3)</tspan><tspan x="-2.5" y="201.6" class="st22 st24">5.2.4	Fourth mode (M4)</tspan><tspan x="-2.8" y="230.4" class="st22 st24">5.2.5	Fifth mode (M5)</tspan><tspan x="-3.2" y="259.2" class="st22 st24">5.2.6	Sixth mode (M6)</tspan><tspan x="-3.5" y="288" class="st22 st24">5.2.7	Seventh mode (M7)</tspan><tspan x="-4.2" y="345.6" class="st22 st24">5.3	Applications of Messiaen’s modes </tspan><tspan x="-4.6" y="374.4" class="st22 st24">	in jazz</tspan><tspan x="-4.9" y="403.2" class="st22 st24">5.3.1	Master class (Nelson Veras)</tspan><tspan x="-5.3" y="432" class="st22 st24">5.3.2	“Calcutta” (Bo van der Werf)</tspan><tspan x="-5.6" y="460.8" class="st22 st24">5.3.3	“Let’s Give This Tree A Little Friend” 		</tspan><tspan x="-6" y="489.6" class="st22 st24">	(Jasper Blom)</tspan><tspan x="-6.3" y="518.4" class="st22 st24">5.3.4	“Prayer” (Steve Lacy)</tspan><tspan x="-6.7" y="547.2" class="st22 st24">5.3.5	“This Is The Gallows” (Frank Carlberg)</tspan><tspan x="-7.4" y="604.8" class="st22 st24">5.4	My applications of Messiaen’s modes</tspan><tspan x="-7.7" y="633.6" class="st22 st24">5.4.1	“A Crow Calling”</tspan><tspan x="-8.1" y="662.4" class="st22 st24">5.4.2	“Baobap”</tspan><tspan x="-8.5" y="691.2" class="st22 st24">5.4.3	“Dicke Luft”</tspan><tspan x="-8.8" y="720" class="st22 st24">5.4.4	“Another Hero’s Journey”</tspan><tspan x="-9.5" y="777.6" class="st22 st24">5.5	Connections between Messiaen’s 		</tspan><tspan x="-9.9" y="806.4" class="st22 st24">	modes and functional harmony</tspan><tspan x="-10.6" y="864" class="st22 st24">5.6	Compendium of melodic patterns </tspan><tspan x="-10.9" y="892.8" class="st22 st24">5.6.1	First mode (M1)</tspan><tspan x="-11.3" y="921.6" class="st22 st24">5.6.2	Second mode (M2)</tspan><tspan x="-11.6" y="950.4" class="st22 st24">5.6.3	Third mode (M3)</tspan><tspan x="-12" y="979.2" class="st22 st24">5.6.4	Fourth mode (M4)</tspan><tspan x="-12.3" y="1008" class="st22 st24">5.6.5	Fifth mode (M5)</tspan><tspan x="-12.7" y="1036.8" class="st22 st24">5.6.6	Sixth mode (M6)</tspan><tspan x="-13" y="1065.6" class="st22 st24">5.6.7	Seventh mode (M7)</tspan><tspan x="-13.7" y="1123.2" class="st22 st24">5.7	Connections between Messiaen’s 		</tspan><tspan x="-14.1" y="1152" class="st22 st24">	modes and the Tone Clock</tspan><tspan x="-14.8" y="1209.6" class="st22 st24">5.8	Conclusion</tspan></text>
</g>
<g id="Text_H6__x2B__P">
</g>
<g id="Text_H7__x2B__P">
	<rect x="908.8" y="1460.8" class="st20" width="582.7" height="177.3"/>
	<text transform="matrix(1 0 0 1 908.8359 1477.8779)"><tspan x="0" y="0" class="st22 st24">7.1	text references</tspan><tspan x="0" y="28.8" class="st22 st24">7.2	audio references</tspan></text>
	<rect id="_x3C_Slice_x3E__8_" x="257.9" y="35.2" class="st20" width="446" height="112"/>
	<rect id="_x3C_Slice_x3E__3_" x="257.9" y="147.2" class="st20" width="452" height="100"/>
	<rect id="_x3C_Slice_x3E__2_" x="257.9" y="247.2" class="st20" width="452" height="57"/>
	<rect id="_x3C_Slice_x3E__1_" x="257.9" y="304.2" class="st20" width="452" height="87"/>
</g>
</svg>
